<svg id="Capa_1" enable-background="new 0 0 512 512" height="512" viewBox="0 0 512 512" width="512" xmlns="http://www.w3.org/2000/svg" xmlns:xlink="http://www.w3.org/1999/xlink"><linearGradient id="SVGID_1_" gradientUnits="userSpaceOnUse" x1="256" x2="256" y1="421" y2="31"><stop offset="0" stop-color="#addcff"/><stop offset=".5028" stop-color="#eaf6ff"/><stop offset="1" stop-color="#eaf6ff"/></linearGradient><linearGradient id="SVGID_2_" gradientUnits="userSpaceOnUse" x1="256" x2="256" y1="481" y2="150.994"><stop offset="0" stop-color="#5558ff"/><stop offset="1" stop-color="#00c0ff"/></linearGradient><g><g><g><path d="m481 226c0-8.291-6.709-15-15-15h-51.27c-3.589-12.554-8.599-24.58-14.985-35.977 23.159-29.414 21.182-72.305-5.933-99.434-5.897-5.898-15.443-5.828-21.24.029l-36.108 36.357c-11.396-6.343-23.438-11.309-35.991-14.854-4.395-37.19-36.123-66.121-74.473-66.121-8.291 0-15 6.709-15 15v51.27c-12.554 3.589-24.58 8.599-35.977 14.985-29.399-23.13-72.29-21.196-99.434 5.933-5.821 5.821-5.903 15.369.029 21.24l36.357 36.108c-6.343 11.396-11.309 23.438-14.854 35.991-37.19 4.395-66.121 36.123-66.121 74.473 0 8.291 6.709 15 15 15h51.27c3.589 12.554 8.613 24.595 15 35.977-14.077 17.944-19.409 41.689-13.931 63.911.718 2.93 2.314 5.581 4.556 7.588 9.418 8.422 20.244 12.524 33.105 12.524 21.211 0 32.417-11.206 40.605-19.395 7.354-7.353 10.958-10.605 19.395-10.605s12.041 3.252 19.395 10.605c8.188 8.189 19.394 19.395 40.605 19.395s32.417-11.206 40.605-19.395c7.354-7.353 10.958-10.605 19.395-10.605s12.041 3.252 19.395 10.605c8.188 8.189 19.394 19.395 40.605 19.395 30.53 0 39.737-22.773 51.694-28.433 4.424-2.08 7.544-6.182 8.379-11.001.835-4.805-.718-9.712-4.175-13.169l-31.89-31.904c6.343-11.396 11.323-23.452 14.868-36.021 37.193-4.394 66.124-36.122 66.124-74.472z" fill="url(#SVGID_1_)"/></g></g><g><g><path d="m196 301h33.281l12.173 48.633c1.523 6.094 6.665 10.591 12.905 11.279 6.419.676 12.307-2.715 15.059-8.203l60-120c2.329-4.644 2.08-10.166-.659-14.59s-7.559-7.119-12.759-7.119h-33.281l-12.173-48.633c-1.523-6.094-6.665-10.591-12.905-11.279-6.284-.703-12.231 2.607-15.059 8.203l-60 120c-2.329 4.644-2.08 10.166.659 14.59s7.559 7.119 12.759 7.119zm301 90c-8.438 0-13.041-3.252-20.395-10.605-8.188-8.189-19.394-19.395-40.605-19.395-7.617 0-14.678 1.479-21.108 4.438-8.555 4.043-14.355 9.829-19.468 14.941-7.383 7.369-11.001 10.621-19.424 10.621-8.438 0-12.041-3.252-19.395-10.605-8.188-8.189-19.394-19.395-40.605-19.395s-32.417 11.206-40.605 19.395c-7.354 7.353-10.957 10.605-19.395 10.605s-12.041-3.252-19.395-10.605c-8.188-8.189-19.394-19.395-40.605-19.395s-32.417 11.206-40.605 19.395c-7.354 7.353-10.957 10.605-19.395 10.605-8.591 0-12.247-3.659-19.395-10.752-8.188-8.13-19.409-19.248-40.605-19.248-21.211 0-32.417 11.206-40.605 19.395-7.354 7.353-11.957 10.605-20.395 10.605-8.291 0-15 6.709-15 15v60c0 8.291 6.709 15 15 15h482c8.291 0 15-6.709 15-15v-60c0-8.291-6.709-15-15-15z" fill="url(#SVGID_2_)"/></g></g></g></svg>