<svg xmlns="http://www.w3.org/2000/svg" xmlns:xlink="http://www.w3.org/1999/xlink" width="30" height="30" viewBox="0 0 30 30">
  <defs>
    <clipPath id="clip-path">
      <rect id="Rectangle_39" data-name="Rectangle 39" width="50" height="50" transform="translate(192 2137.721)" fill="#fff" stroke="#707070" stroke-width="1"/>
    </clipPath>
  </defs>
  <g id="icon_lattes" transform="translate(-192 -2137.721)" clip-path="url(#clip-path)">
    <g id="headhunting_2_" data-name="headhunting (2)" transform="translate(192 2137.721)">
      <g id="Group_2" data-name="Group 2">
        <g id="Group_1" data-name="Group 1">
          <path id="Path_15" data-name="Path 15" d="M26.562,11.409H18.984a.439.439,0,0,0,0,.879h7.578a.439.439,0,1,0,0-.879Z" fill="#fff"/>
          <path id="Path_16" data-name="Path 16" d="M26.562,14.058H18.984a.439.439,0,1,0,0,.879h7.578a.439.439,0,1,0,0-.879Z" fill="#fff"/>
          <path id="Path_17" data-name="Path 17" d="M27,17.147a.439.439,0,0,0-.439-.439H18.984a.439.439,0,0,0,0,.879h7.578A.439.439,0,0,0,27,17.147Z" fill="#fff"/>
          <path id="Path_18" data-name="Path 18" d="M18.984,19.356a.439.439,0,1,0,0,.879h3.789a.439.439,0,1,0,0-.879Z" fill="#fff"/>
          <path id="Path_19" data-name="Path 19" d="M29.216,5.167,24.685.637A2.174,2.174,0,0,0,23.148,0H8.239A2.177,2.177,0,0,0,6.065,2.174v4.5a.439.439,0,0,0,.879,0v-4.5a1.3,1.3,0,0,1,1.3-1.3H23.148a1.293,1.293,0,0,1,.279.03v4a1.517,1.517,0,0,0,1.515,1.515h4a1.3,1.3,0,0,1,.031.279V27.826a1.3,1.3,0,0,1-1.3,1.3h-5.9a1.981,1.981,0,0,0-.246-2.5l-4-4a1.026,1.026,0,0,0-1.078-.237l-.86-.86a8.527,8.527,0,1,0-1.956,1.955l.86.86a1.026,1.026,0,0,0,.237,1.078l3.7,3.7H8.239a1.3,1.3,0,0,1-1.3-1.3V26.418a.439.439,0,0,0-.879,0v1.408A2.177,2.177,0,0,0,8.239,30H27.679a2.177,2.177,0,0,0,2.174-2.174V6.7a2.178,2.178,0,0,0-.637-1.537ZM3.262,21.967A7.647,7.647,0,1,1,14.671,21.3a7.759,7.759,0,0,1-1.263,1.263A7.65,7.65,0,0,1,3.262,21.967Zm11.07.966a8.647,8.647,0,0,0,.711-.711l.724.724-.713.713-.724-.724,0,0ZM19.354,28.8l-4-4a.147.147,0,0,1,0-.208l.006-.006h0l1.34-1.34a.147.147,0,0,1,.208,0l4,4A1.1,1.1,0,1,1,19.354,28.8ZM24.306,4.911V1.5l4.047,4.047H24.942A.637.637,0,0,1,24.306,4.911Z" fill="#fff"/>
          <path id="Path_20" data-name="Path 20" d="M18.479,2.851H9.761a.946.946,0,0,0-.945.945V5.481a.946.946,0,0,0,.945.945h8.718a.946.946,0,0,0,.945-.945V3.8a.946.946,0,0,0-.945-.945Zm.066,2.629a.066.066,0,0,1-.066.066H9.761a.066.066,0,0,1-.066-.066V3.8a.066.066,0,0,1,.066-.066h8.718a.066.066,0,0,1,.066.066V5.481Z" fill="#fff"/>
          <path id="Path_21" data-name="Path 21" d="M13.458,21.35A6.773,6.773,0,1,0,1.974,15.531a.439.439,0,0,0,.869.133A5.895,5.895,0,1,1,13.1,20.442a1.9,1.9,0,0,0-.951-.9,8.56,8.56,0,0,0-1.97-.448l0-.555A2.578,2.578,0,0,0,11.2,16.866a.78.78,0,0,0,.48-.724c0-.582,0-1.548,0-2.11a1.079,1.079,0,0,0-.895-1.062A1.079,1.079,0,0,0,9.727,12.1H7.606a1.985,1.985,0,0,0-1.983,1.983V16.15a.776.776,0,0,0,.474.714A2.585,2.585,0,0,0,7.07,18.5l0,.605a8.561,8.561,0,0,0-1.966.464,1.853,1.853,0,0,0-.892.85,5.848,5.848,0,0,1-1.352-2.844A.439.439,0,0,0,2,17.727,6.774,6.774,0,0,0,13.458,21.35ZM7.606,12.981H9.727a.2.2,0,0,1,.2.2.656.656,0,0,0,.655.655H10.6a.2.2,0,0,1,.2.2v.236l-.531-.05a2.45,2.45,0,0,0-1.5.348,1.554,1.554,0,0,1-.812.229H6.5v-.71a1.106,1.106,0,0,1,1.1-1.1ZM6.5,16.057v-.383H7.958a2.433,2.433,0,0,0,1.271-.358,1.564,1.564,0,0,1,.957-.222l.613.058c0,.271,0,.628,0,.9a.546.546,0,0,0-.45.5,1.707,1.707,0,0,1-3.407,0,.55.55,0,0,0-.444-.5ZM8.65,19.041a2.583,2.583,0,0,0,.654-.084V19.2a.753.753,0,0,0,.073.32,1.342,1.342,0,0,1-.749.23h0a1.342,1.342,0,0,1-.743-.223.753.753,0,0,0,.07-.32v-.263a2.576,2.576,0,0,0,.7.1ZM4.9,21.094a1,1,0,0,1,.565-.723,7.009,7.009,0,0,1,1.6-.377,2.215,2.215,0,0,0,1.558.635h.007a2.215,2.215,0,0,0,1.565-.648,7.006,7.006,0,0,1,1.6.363,1,1,0,0,1,.607.774,5.9,5.9,0,0,1-7.5-.024Z" fill="#fff"/>
        </g>
      </g>
    </g>
  </g>
</svg>
